<svg xmlns="http://www.w3.org/2000/svg" viewBox="0 0 100 100"><defs><style>.a{fill:#2cd6ae}.b{fill:#191817}</style></defs><title>vio-illustrated-icons-EXPORT</title><circle class="a" cx="49.956" cy="50" r="50"/><path class="b" d="M81.823 61.842V28.284a3.363 3.363 0 0 0-3.359-3.359h-9.5V21a2.659 2.659 0 0 0-2.5-2.79H33.728a2.659 2.659 0 0 0-2.5 2.79v3.921H21.6a3.363 3.363 0 0 0-3.359 3.359v33.562h-7.412v4a3.932 3.932 0 0 0 3.927 3.927h70.552a3.931 3.931 0 0 0 3.927-3.927v-4zM33.232 21c0-.445.267-.79.5-.79h32.733c.229 0 .5.345.5.79v14.52c0 .445-.267.79-.5.79h-2.828l-.047 3.653-2.935-3.653H33.728c-.229 0-.5-.345-.5-.79zm.5 17.306H59.7l5.823 7.249.092-7.249h.854a2.659 2.659 0 0 0 2.5-2.79v-4.682h6.908v26.543H24.2V30.834h7.037v4.686a2.659 2.659 0 0 0 2.491 2.79zM20.244 28.284a1.36 1.36 0 0 1 1.356-1.359h9.629v1.909H22.2v30.543h55.669V28.834h-8.908v-1.909h9.5a1.36 1.36 0 0 1 1.359 1.359v33.558h-23.4l-.24.655a1.936 1.936 0 0 1-1.8 1.277h-8.7a1.935 1.935 0 0 1-1.8-1.277l-.24-.655h-23.4zm66.991 37.559a1.929 1.929 0 0 1-1.927 1.927H14.756a1.929 1.929 0 0 1-1.927-1.927v-2h29.485a3.935 3.935 0 0 0 3.368 1.932h8.7a3.933 3.933 0 0 0 3.367-1.932h29.486z"/><path class="b" d="M48.711 31.177h2.734v2.627h-2.734zm2.473-1.26l.323-7.512h-2.872l.323 7.512h2.226z"/></svg>