<svg xmlns="http://www.w3.org/2000/svg" viewBox="0 0 100 100"><defs><style>.a{fill:#2cd6ae}.b{fill:#191817}</style></defs><title>vio-illustrated-icons-EXPORT</title><circle class="a" cx="49.956" cy="50" r="50"/><path class="b" d="M49.88 73.377a3.688 3.688 0 1 0 3.687 3.688 3.693 3.693 0 0 0-3.687-3.688zm0 5.375a1.688 1.688 0 1 1 1.687-1.687 1.689 1.689 0 0 1-1.687 1.687zm-3.665-56.759h7.33a1 1 0 0 0 0-2h-7.33a1 1 0 0 0 0 2z"/><path class="b" d="M79.062 32.332h-7.531V19.645c0-2.832-2.669-5.137-5.949-5.137h-31.4c-3.281 0-5.95 2.3-5.95 5.137v60.8c0 2.832 2.669 5.137 5.95 5.137h31.4c3.28 0 5.949-2.3 5.949-5.137V52.428h.763l5.823 7.247.092-7.247h.853a2.66 2.66 0 0 0 2.5-2.79V35.121a2.659 2.659 0 0 0-2.5-2.789zM34.178 16.508h31.4c2.141 0 3.949 1.437 3.949 3.137v3.985h-39.3v-3.985c.001-1.7 1.81-3.137 3.951-3.137zm31.4 67.069h-31.4c-2.141 0-3.95-1.437-3.95-3.137v-8.982h39.3v8.982c.003 1.7-1.805 3.137-3.946 3.137zm3.949-14.119h-39.3V25.63h39.3v6.7H46.325a2.657 2.657 0 0 0-2.5 2.789v14.519a2.658 2.658 0 0 0 2.5 2.79h23.206zm10.028-19.82c0 .445-.267.79-.5.79h-2.821l-.047 3.653-2.934-3.653H46.325c-.228 0-.5-.345-.5-.79V35.121c0-.444.267-.789.5-.789h32.737c.23 0 .5.345.5.789z"/><path class="b" d="M61.555 44.035h2.226l.323-7.513h-2.872l.323 7.513zm-.246 1.26h2.734v2.627h-2.734z"/></svg>