<svg xmlns="http://www.w3.org/2000/svg" viewBox="0 0 100 100"><defs><style>.a{fill:#2cd6ae}.b{fill:#191817}</style></defs><title>vio-illustrated-icons-EXPORT</title><circle class="a" cx="49.956" cy="50" r="50"/><path class="b" d="M50.091 55.905a11.926 11.926 0 1 0-11.925-11.926 11.94 11.94 0 0 0 11.925 11.926zm0-21.852a9.926 9.926 0 1 1-9.925 9.926 9.938 9.938 0 0 1 9.925-9.926z"/><path class="b" d="M55.72 41.244l-1.414-1.414-6.179 6.177-2.25-2.25-1.414 1.414 3.664 3.665 7.593-7.592zM75.574 44.6l2.733 2.733 1.414-1.414-5.2-5.2-5.2 5.2 1.414 1.414 2.84-2.839a23.522 23.522 0 0 1-23.484 22.984H18.583v2h31.508A25.523 25.523 0 0 0 75.574 44.6z"/><path class="b" d="M30.934 42.839l-1.414-1.414-2.914 2.914c0-.121-.013-.239-.013-.36a23.5 23.5 0 0 1 45.756-7.556l1.894-.642a25.5 25.5 0 0 0-49.65 8.2v.091l-2.645-2.645-1.414 1.414 5.2 5.2zm7.992 21.81A23.735 23.735 0 0 1 27.775 51.36l-1.9.627A25.353 25.353 0 0 0 35.2 64.649zm35.662.07l2.759 2.759h-10.8a25.4 25.4 0 0 1-3.6 2H77.4l-2.81 2.81L76 73.7l5.2-5.2-5.2-5.2z"/></svg>