<svg xmlns="http://www.w3.org/2000/svg" viewBox="0 0 100 100"><defs><style>.a{fill:#2cd6ae}.b{fill:#191817}</style></defs><title>vio-illustrated-icons-EXPORT</title><circle class="a" cx="49.956" cy="50" r="50"/><path class="b" d="M75.285 43.685H47.9v-1.433a3.486 3.486 0 0 0-3.483-3.483h-9.464v-5.948a1 1 0 0 0-2 0v5.948h-2.118a3.486 3.486 0 0 0-3.483 3.483v1.433h-2.889a4.982 4.982 0 0 0-4.977 4.976v25.224a4.983 4.983 0 0 0 4.977 4.976h2.9a3.483 3.483 0 0 0 3.473 3.376h13.58a3.483 3.483 0 0 0 3.473-3.376h27.4a4.983 4.983 0 0 0 4.976-4.976V48.661a4.982 4.982 0 0 0-4.98-4.976zm-53.8 30.2V48.661a2.98 2.98 0 0 1 2.977-2.976h2.889v31.176h-2.888a2.98 2.98 0 0 1-2.977-2.976zM45.9 78.753a1.485 1.485 0 0 1-1.483 1.484H30.835a1.485 1.485 0 0 1-1.483-1.484v-36.5a1.484 1.484 0 0 1 1.483-1.483h13.58a1.484 1.484 0 0 1 1.485 1.482zm32.363-4.868a2.979 2.979 0 0 1-2.976 2.976H47.9V45.685h27.385a2.979 2.979 0 0 1 2.976 2.976z"/><path class="b" d="M72.574 48.162h-19.1a2.3 2.3 0 0 0-2.3 2.3v8.245a2.3 2.3 0 0 0 2.3 2.3h19.1a2.3 2.3 0 0 0 2.3-2.3v-8.245a2.3 2.3 0 0 0-2.3-2.3zm.3 10.545a.3.3 0 0 1-.3.3h-19.1a.3.3 0 0 1-.3-.3v-8.245a.3.3 0 0 1 .3-.3h19.1a.3.3 0 0 1 .3.3zm-31.825-23.84h25.969l5.823 7.249.092-7.249h.853a2.659 2.659 0 0 0 2.5-2.79V17.561a2.659 2.659 0 0 0-2.5-2.79H41.049a2.658 2.658 0 0 0-2.495 2.79v14.516a2.658 2.658 0 0 0 2.495 2.79zm-.495-17.306c0-.445.266-.79.495-.79h32.737c.23 0 .5.345.5.79v14.516c0 .445-.266.79-.5.79h-2.828l-.047 3.653-2.934-3.653H41.049c-.229 0-.495-.345-.495-.79z"/><path class="b" d="M58.505 26.473l.323-7.512h-2.872l.323 7.512h2.226zm-2.472 1.261h2.734v2.627h-2.734zm-3.642 36.117h21.264v2H52.391zm0 4.084h21.264v2H52.391zm0 4.085h21.264v2H52.391z"/></svg>