<svg xmlns="http://www.w3.org/2000/svg" viewBox="0 0 100 100"><defs><style>.a{fill:#2cd6ae}.b{fill:#191817}</style></defs><title>vio-illustrated-icons-EXPORT</title><circle class="a" cx="49.956" cy="50" r="50"/><path class="b" d="M77.153 38.651A27.355 27.355 0 1 0 34.769 63.2l-.015 5.264a2.964 2.964 0 0 0 2.915 2.978l-.014 8.963a2.668 2.668 0 0 0 2.669 2.672h2.6c0 .13-.006.3-.006.413 0 2.324 3.488 3.54 6.934 3.54s6.934-1.216 6.934-3.54c0-.117 0-.287-.006-.413h2.6a2.67 2.67 0 0 0 2.668-2.673l-.014-8.962a2.964 2.964 0 0 0 2.916-2.977l-.014-5.265a27.416 27.416 0 0 0 12.217-24.549zm-17.118 32.8v1.75H39.667v-1.75zM39.663 75.2h20.378v1.932H39.66zm15.123 8.292c0 .447-1.728 1.54-4.934 1.54s-4.934-1.093-4.934-1.54c0-.114 0-.286.006-.413h9.856c.002.121.006.297.006.414zm5.067-2.609a.658.658 0 0 1-.472.2H40.324a.657.657 0 0 1-.472-.2.665.665 0 0 1-.2-.473v-1.278h20.39v1.278a.667.667 0 0 1-.189.474zM63.4 61.815l-.466.3.018 6.363a.975.975 0 0 1-.974.977h-24.25a.975.975 0 0 1-.974-.977l.018-6.363-.466-.3a25.352 25.352 0 0 1 13.53-46.782c.543 0 1.09.017 1.638.051A25.351 25.351 0 0 1 63.4 61.815z"/><path class="b" d="M49.852 49.037a5.693 5.693 0 1 0 5.693 5.693 5.7 5.7 0 0 0-5.693-5.693zm0 9.386a3.693 3.693 0 1 1 3.693-3.693 3.7 3.7 0 0 1-3.693 3.693zm0-25.796a22.7 22.7 0 0 0-17.176 7.881l-.608.7 4.169 4.169.7-.838a16.805 16.805 0 0 1 25.828 0l.7.838 4.169-4.168-.608-.7a22.693 22.693 0 0 0-17.174-7.882zm13.724 9.815a18.8 18.8 0 0 0-27.448 0l-1.317-1.316a20.652 20.652 0 0 1 30.082 0z"/><path class="b" d="M49.852 40.338A14.978 14.978 0 0 0 38.112 46l-.56.7 4.214 4.213.688-.939a9.148 9.148 0 0 1 14.8 0l.689.938 4.213-4.213-.56-.7a14.983 14.983 0 0 0-11.744-5.661zm8.278 7.551a11.134 11.134 0 0 0-16.556 0l-1.32-1.321a13.005 13.005 0 0 1 19.2 0z"/></svg>