<svg xmlns="http://www.w3.org/2000/svg" viewBox="0 0 100 100"><defs><style>.a{fill:#2cd6ae}.b{fill:#191817}</style></defs><title>vio-illustrated-icons-EXPORT</title><circle class="a" cx="49.956" cy="50" r="50"/><path class="b" d="M51.154 80.855a32.7 32.7 0 1 1 32.7-32.7 32.741 32.741 0 0 1-32.7 32.7zm0-63.408a30.7 30.7 0 1 0 30.7 30.7 30.739 30.739 0 0 0-30.7-30.7z"/><path class="b" d="M51.193 69.379a21.3 21.3 0 1 1 .9-42.57l4.965-3.025 3.024 4.965a21.3 21.3 0 0 1-8.887 40.63zm-.073-40.593a19.3 19.3 0 1 0 7.861 1.661l-.281-.127-2.307-3.788L52.6 28.84l-.313-.019q-.587-.035-1.167-.035z"/><path class="b" d="M49.18 45.243l-3.348 7.769h-2.343l3.388-7.5h-3.97v-1.95h6.273zm4.896 1.191q0-1.084-.939-1.084a.862.862 0 0 0-.775.37 2.268 2.268 0 0 0-.271 1.151h-2.21a3.522 3.522 0 0 1 1.032-2.571 3.46 3.46 0 0 1 2.409-.861 3.131 3.131 0 0 1 2.3.768 2.693 2.693 0 0 1 .775 2 4.235 4.235 0 0 1-1.046 2.666 9.773 9.773 0 0 1-2.5 2.2h3.692V52.9h-6.67v-1.688q4.204-3.004 4.203-4.778z"/><circle class="b" cx="58.348" cy="43.54" r="1.128"/><path class="b" d="M51.154 65.434a17.283 17.283 0 1 1 17.282-17.283 17.3 17.3 0 0 1-17.282 17.283zm0-32.566a15.283 15.283 0 1 0 15.282 15.283 15.3 15.3 0 0 0-15.282-15.283zm-1-13.821h2v3.774h-2zm-20.287 9.231l1.414-1.415 2.668 2.67-1.414 1.413zm38.375 1.37l2.784-2.784 1.414 1.414-2.784 2.784zM39.13 21.629l1.85-.762 1.437 3.488-1.848.762zm34.907 15.999l3.64-1.5.762 1.85-3.64 1.499zm-50.14.27l.767-1.846 3.485 1.45-.768 1.845zM59.895 24.53l1.512-3.636 1.846.768-1.512 3.635z"/></svg>